<svg width="339" height="730" viewBox="0 0 339 730" fill="none" xmlns="http://www.w3.org/2000/svg">
<path fill-rule="evenodd" clip-rule="evenodd" d="M336.704 -132.531C336.706 -132.535 336.708 -132.537 337.5 -132.099C338.293 -131.661 338.292 -131.66 338.29 -131.657L338.282 -131.642L338.249 -131.581C338.219 -131.527 338.174 -131.445 338.115 -131.337C337.996 -131.119 337.82 -130.793 337.588 -130.361C337.123 -129.495 336.437 -128.204 335.55 -126.502C333.778 -123.098 331.206 -118.051 328.012 -111.487C321.624 -98.3599 312.749 -79.1639 302.805 -54.9007C282.916 -6.37351 258.756 62.4131 241.669 143.449C207.493 305.531 201.634 516.522 314.738 712.424L313.169 713.33C199.757 516.895 205.671 305.396 239.897 143.075C257.011 61.9092 281.209 -6.98451 301.129 -55.5878C311.089 -79.8898 319.98 -99.1213 326.383 -112.28C329.585 -118.859 332.164 -123.92 333.944 -127.339C334.833 -129.047 335.524 -130.346 335.992 -131.217C336.226 -131.653 336.404 -131.982 336.524 -132.203C336.585 -132.314 336.63 -132.397 336.66 -132.452L336.695 -132.515L336.704 -132.531ZM221.346 -65.8299C221.347 -65.8332 221.347 -65.8347 222.201 -65.5315C223.054 -65.2279 223.054 -65.2269 223.053 -65.2244L223.049 -65.2119L223.03 -65.1602L222.998 -65.069L222.958 -64.9514C222.929 -64.8715 222.896 -64.7751 222.857 -64.6617L222.794 -64.4803C222.757 -64.3703 222.715 -64.2485 222.67 -64.1149C222.417 -63.3731 222.045 -62.264 221.569 -60.7996C220.617 -57.8711 219.248 -53.5212 217.587 -47.8439C214.264 -36.4893 209.767 -19.8247 205.077 1.40073C195.698 43.8526 185.547 104.545 182.47 177.49C176.314 323.38 198.45 518.253 311.6 714.235L310.032 715.141C196.666 518.785 174.494 323.548 180.66 177.413C183.743 104.346 193.911 43.5463 203.309 1.00976C208.008 -20.2588 212.515 -36.9625 215.849 -48.3529C217.516 -54.048 218.889 -58.4148 219.846 -61.3596C220.325 -62.8322 220.7 -63.9492 220.955 -64.6989C221.083 -65.0738 221.181 -65.3569 221.247 -65.5468C221.28 -65.6417 221.305 -65.713 221.322 -65.7613L221.341 -65.8156L221.346 -65.8299ZM142.198 -19.3416C141.306 -19.5001 141.305 -19.4981 141.305 -19.4952L141.303 -19.4827L141.294 -19.4342L141.272 -19.3086L141.262 -19.2438C141.233 -19.075 141.191 -18.8239 141.136 -18.4909C141.027 -17.825 140.869 -16.8326 140.672 -15.5222C140.279 -12.9023 139.732 -9.0121 139.119 -3.92404C137.89 6.25259 136.389 21.2225 135.296 40.4094C133.111 78.7837 132.56 134.029 139.093 201.539C152.159 336.562 193.56 520.651 306.894 716.952L308.463 716.047C195.281 520.009 153.942 336.179 140.896 201.365C134.373 133.958 134.924 78.8058 137.104 40.5125C138.195 21.3658 139.692 6.43434 140.916 -3.70671C141.529 -8.77743 142.072 -12.6503 142.463 -15.2538C142.658 -16.5553 142.816 -17.5399 142.923 -18.1976C142.946 -18.3387 142.967 -18.4651 142.986 -18.576C143.011 -18.7237 143.031 -18.8444 143.047 -18.9387C143.061 -19.0207 143.072 -19.0827 143.079 -19.1233L143.087 -19.169L143.089 -19.1801C143.089 -19.1801 143.089 -19.1814 143.062 -19.1865C143.049 -19.1889 143.031 -19.1925 143.003 -19.1975C142.951 -19.207 142.869 -19.222 142.738 -19.2453L142.198 -19.3416ZM54.2327 30.9979C54.2327 30.9979 54.2324 30.9974 54.2343 30.997C54.2361 30.9966 54.24 30.996 54.2487 30.9948C54.2654 30.9929 54.2993 30.99 54.3692 30.9843C54.489 30.9744 54.7139 30.9565 55.1354 30.9239C55.5437 30.8921 55.7671 30.875 55.8895 30.8661C55.9466 30.8618 55.9818 30.8593 56.0039 30.8577C56.025 30.8563 56.0332 30.856 56.0364 30.8561C56.0385 30.8561 56.0388 30.8565 56.0388 30.8565L56.0391 30.8662L56.042 30.9056L56.0553 31.0646C56.0671 31.2063 56.0854 31.4191 56.1101 31.7028C56.1602 32.2697 56.2376 33.1191 56.3486 34.2444C56.5716 36.4944 56.9271 39.8489 57.4603 44.2594C58.5267 53.0802 60.3037 66.1243 63.1445 83.0051C68.8246 116.768 78.7582 165.879 95.7675 227.249C129.787 349.988 192.11 521.763 305.326 717.858L303.757 718.764C190.456 522.521 128.076 350.602 94.0221 227.733C76.9944 166.298 67.0482 117.125 61.3583 83.3058C58.5133 66.3958 56.7319 53.3243 55.6617 44.477C55.127 40.0532 54.7702 36.6855 54.546 34.4225C54.4344 33.2908 54.3565 32.4349 54.3058 31.8616C54.2805 31.5751 54.2623 31.3589 54.2499 31.2142L54.2368 31.0502L54.2336 31.0085L54.2327 30.9979ZM-14.6714 71.2269C-15.2937 71.4441 -15.4631 71.5039 -15.5087 71.5211C-15.5258 71.5275 -15.5253 71.5285 -15.5253 71.5285L-15.5221 71.5375L-15.5099 71.5733L-15.4604 71.7151C-15.4162 71.8406 -15.3498 72.0281 -15.2612 72.2775L-15.1785 72.5112L-15.0763 72.7988C-15.0194 72.9572 -14.9578 73.1309 -14.8901 73.3188C-14.7658 73.6662 -14.6232 74.0636 -14.4623 74.5107C-13.7503 76.4885 -12.6764 79.4389 -11.2296 83.3324C-8.33668 91.1199 -3.95071 102.68 2.01938 117.777C13.9597 147.972 32.2385 192.315 57.5959 248.918C108.312 362.126 187.345 524.377 300.62 720.575L302.188 719.669C188.947 523.529 109.942 361.334 59.2495 248.178C33.9026 191.6 15.6343 147.282 3.70353 117.111C-2.26178 102.026 -6.64312 90.4776 -9.5316 82.7014C-10.9762 78.8136 -12.0478 75.8689 -12.7585 73.8971C-13.1134 72.911 -13.3782 72.1681 -13.5537 71.672C-13.6423 71.4244 -13.708 71.2381 -13.7516 71.1138L-13.8007 70.9744L-13.8124 70.9395L-13.8153 70.931C-13.8153 70.931 -13.8158 70.9301 -13.8325 70.9355C-13.8492 70.941 -13.8807 70.9517 -13.9426 70.9731L-14.0803 71.0208C-14.2066 71.0647 -14.3946 71.1302 -14.6714 71.2269ZM-57.0212 95.6889C-57.0222 95.6871 -57.0227 95.6862 -57.8104 96.1332C-58.5982 96.5801 -58.5977 96.581 -58.5967 96.5827L-58.5921 96.5907L-58.5845 96.6038L-58.5746 96.6228L-58.5608 96.6466L-58.5441 96.6757L-58.5243 96.71L-58.5022 96.7501L-58.4763 96.7949L-58.4481 96.8455L-58.4161 96.9009L-58.3819 96.962L-58.3438 97.0279L-58.3036 97.0995L-58.2603 97.1764L-58.2139 97.2585L-58.1637 97.3454L-58.1113 97.4379L-58.0559 97.5357L-57.9975 97.6387L-57.9359 97.7471L-57.8715 97.8606L-57.8048 97.9798L-57.7343 98.1037L-57.6607 98.2328L-57.5842 98.3672L-57.5054 98.5073L-57.4229 98.652L-57.3373 98.8021L-57.2496 98.9577L-57.158 99.118L-57.0642 99.2841L-56.9675 99.4554L-56.867 99.6313L-56.7642 99.8129L-56.6584 99.9997L-56.5497 100.192L-56.438 100.389L-56.3233 100.591L-56.2055 100.799L-56.0848 101.011L-55.9612 101.229L-55.8345 101.452L-55.7049 101.68L-55.5723 101.914L-55.4368 102.152L-55.299 102.396L-55.1575 102.645L-55.0138 102.899L-54.8663 103.158L-54.7167 103.423L-54.5633 103.692L-54.4078 103.967L-54.2493 104.247L-54.087 104.531L-53.9226 104.822L-53.7553 105.117L-53.5849 105.417L-53.4116 105.723L-53.2354 106.034L-53.0562 106.349L-52.8741 106.67L-52.689 106.996L-52.501 107.327L-52.3101 107.663L-52.117 108.005L-51.9202 108.352L-51.7204 108.703L-51.5185 109.06L-51.3129 109.421L-51.1052 109.789L-50.8937 110.16L-50.6801 110.537L-50.4636 110.92L-50.2433 111.307L-50.0209 111.699L-49.7956 112.097L-49.5674 112.499L-49.3363 112.907L-49.1015 113.319L-48.8645 113.736L-48.6255 114.16L-48.3827 114.587L-48.137 115.02L-47.8885 115.458L-47.637 115.901L-47.3834 116.349L-47.1262 116.802L-46.866 117.26L-46.6037 117.723L-46.3377 118.191L-46.0697 118.664L-45.798 119.142L-45.5241 119.625L-45.2474 120.114L-44.967 120.607L-44.6845 121.105L-44.3992 121.608L-44.1109 122.117L-43.8198 122.63L-43.5258 123.148L-43.229 123.671L-42.9293 124.2L-42.6266 124.733L-42.3211 125.271L-42.0129 125.814L-41.7016 126.362L-41.3883 126.916L-41.0714 127.474L-40.7525 128.037L-40.4298 128.605L-40.1043 129.178L-39.7767 129.756L-39.4464 130.339L-39.1123 130.927L-38.7762 131.52L-38.4372 132.118L-38.0947 132.72L-37.75 133.328L-37.4026 133.941L-37.0523 134.558L-36.6991 135.181L-36.3432 135.808L-35.9843 136.44L-35.6227 137.078L-35.2582 137.72L-34.8909 138.367L-34.5215 139.019L-34.1486 139.676L-33.7728 140.338L-33.395 141.005L-33.0136 141.677L-32.6301 142.353L-32.2431 143.035L-31.854 143.721L-31.4613 144.412L-31.0666 145.108L-30.6691 145.81L-30.2688 146.516L-29.8649 147.226L-29.4591 147.942L-29.0503 148.662L-28.6388 149.388L-28.2245 150.118L-27.8073 150.853L-27.3875 151.593L-26.9648 152.338L-26.5401 153.088L-26.1118 153.843L-25.6808 154.602L-25.2469 155.366L-24.8111 156.135L-24.3717 156.909L-23.9303 157.688L-23.4854 158.472L-23.0384 159.26L-22.5879 160.053L-22.1354 160.851L-21.6802 161.654L-21.2214 162.462L-20.7606 163.274L-20.2971 164.092L-19.8307 164.914L-19.3616 165.741L-18.8898 166.572L-18.4152 167.409L-17.9379 168.25L-17.4578 169.096L-16.9749 169.947L-16.4893 170.803L-16.001 171.663L-15.5106 172.529L-15.0168 173.398L-14.5202 174.273L-14.0216 175.153L-13.5197 176.037L-13.0156 176.926L-12.5079 177.82L-11.9987 178.718L-11.4864 179.622L-10.9705 180.53L-10.4528 181.443L-9.93275 182.36L-9.40955 183.283L-8.88362 184.21L-8.35498 185.142L-7.82362 186.078L-7.28958 187.02L-6.75324 187.965L-6.21374 188.916L-5.67151 189.871L-5.12657 190.831L-4.57891 191.796L-4.02978 192.766L-3.47669 193.74L-2.92088 194.719L-2.36314 195.703L-1.80235 196.691L-1.23916 197.684L-0.672961 198.681L-0.104364 199.684L0.466529 200.691L1.04136 201.703L1.61766 202.719L2.19667 203.74L2.77843 204.766L3.36289 205.796L3.95081 206.831L4.54071 207.871L5.13333 208.915L5.72865 209.965L6.32546 211.018L6.92622 212.077L7.52924 213.14L8.13542 214.208L8.7439 215.28L9.35427 216.357L9.96818 217.438L10.5848 218.524L11.2033 219.615L11.8249 220.71L12.4488 221.811L13.0751 222.916L13.7048 224.024L14.3365 225.138L14.9709 226.257L15.6088 227.38L16.2486 228.508L16.8907 229.64L17.5355 230.777L18.183 231.918L18.8333 233.065L19.4862 234.216L20.1415 235.37L20.7998 236.531L21.4605 237.695L22.1238 238.864L22.7891 240.038L23.4575 241.215L24.129 242.398L24.802 243.586L25.4785 244.777L26.1573 245.973L26.8384 247.175L27.5226 248.38L28.2088 249.59L28.8976 250.805L29.5895 252.023L30.2838 253.247L30.9804 254.475L31.6796 255.708L32.3812 256.945L33.0862 258.186L33.7932 259.432L34.5028 260.683L35.2152 261.939L35.9299 263.199L36.6465 264.463L37.3666 265.732L38.0889 267.005L38.814 268.283L39.5418 269.565L40.2711 270.852L41.0038 272.143L41.7385 273.439L42.4768 274.739L43.2165 276.044L43.9597 277.353L44.7048 278.667L45.4529 279.985L46.203 281.307L46.9554 282.634L47.7117 283.966L48.4691 285.301L49.2296 286.642L49.9924 287.987L50.7579 289.336L51.5261 290.69L52.2966 292.048L53.0698 293.411L53.8452 294.778L54.6234 296.149L55.4043 297.525L56.1867 298.906L56.9726 300.29L57.7607 301.679L58.5516 303.072L59.3443 304.471L60.1402 305.873L60.9379 307.28L61.7392 308.691L62.542 310.107L63.3478 311.526L64.1559 312.952L64.966 314.38L65.7791 315.814L66.5953 317.251L67.413 318.693L68.2335 320.139L69.0566 321.59L69.8819 323.045L70.7101 324.505L71.5405 325.968L72.3735 327.437L73.2089 328.909L74.047 330.386L74.8873 331.867L75.7296 333.353L76.5749 334.842L77.4229 336.336L78.2729 337.836L79.1259 339.339L79.9812 340.845L80.8384 342.357L81.6987 343.873L82.5609 345.393L83.4258 346.918L84.2933 348.446L85.1632 349.98L86.0353 351.518L86.9105 353.059L87.7877 354.606L88.6671 356.156L89.5492 357.711L90.4336 359.27L91.3202 360.833L92.2096 362.4L93.1017 363.973L93.996 365.549L94.8926 367.129L95.792 368.714L96.6928 370.303L97.5966 371.896L98.5032 373.493L99.4117 375.096L100.323 376.702L101.237 378.312L102.153 379.927L103.072 381.545L103.992 383.168L104.916 384.796L105.841 386.427L106.769 388.064L107.7 389.703L108.632 391.347L109.568 392.996L110.505 394.649L111.445 396.306L112.387 397.967L113.332 399.632L114.279 401.302L115.229 402.976L116.181 404.654L117.135 406.336L118.092 408.022L119.052 409.713L120.014 411.408L120.977 413.107L121.943 414.81L122.912 416.517L123.883 418.229L124.857 419.945L125.832 421.665L126.81 423.389L127.791 425.117L128.774 426.849L129.759 428.586L130.746 430.327L131.737 432.072L132.729 433.821L133.723 435.574L134.72 437.332L135.72 439.093L136.721 440.859L137.725 442.629L138.732 444.403L139.74 446.181L140.752 447.963L141.765 449.749L142.781 451.54L143.799 453.334L144.82 455.133L145.842 456.936L146.867 458.743L147.895 460.553L148.924 462.369L149.957 464.188L150.991 466.011L152.028 467.839L153.067 469.67L154.108 471.505L155.152 473.346L156.198 475.189L157.247 477.037L158.297 478.889L159.35 480.745L160.405 482.605L161.463 484.468L162.523 486.337L163.585 488.209L164.65 490.086L165.717 491.966L166.786 493.85L167.857 495.739L168.93 497.631L170.006 499.528L171.085 501.429L172.165 503.333L173.248 505.241L174.333 507.155L175.421 509.071L176.51 510.992L177.602 512.916L178.697 514.845L179.793 516.778L180.892 518.715L181.993 520.656L183.096 522.6L184.202 524.549L185.309 526.502L186.419 528.458L187.531 530.419L188.647 532.383L189.764 534.353L190.883 536.325L192.004 538.302L193.128 540.283L194.254 542.267L195.382 544.256L196.513 546.249L197.645 548.245L198.78 550.246L199.917 552.251L201.057 554.258L202.199 556.271L203.342 558.287L204.488 560.307L205.637 562.331L206.787 564.36L207.941 566.392L209.095 568.428L210.253 570.468L211.412 572.511L212.574 574.559L213.738 576.61L214.904 578.667L216.072 580.726L217.243 582.789L218.416 584.856L219.591 586.928L220.768 589.003L221.948 591.082L223.129 593.165L224.313 595.252L225.499 597.342L226.688 599.437L227.878 601.535L229.071 603.638L230.266 605.743L231.463 607.854L232.662 609.968L233.864 612.086L235.068 614.207L236.273 616.333L237.482 618.462L238.691 620.596L239.904 622.733L241.118 624.873L242.335 627.018L243.554 629.167L244.776 631.319L245.999 633.475L247.224 635.636L248.453 637.8L249.682 639.967L250.914 642.139L252.148 644.314L253.384 646.493L254.622 648.676L255.863 650.863L257.106 653.054L258.351 655.248L259.598 657.447L260.847 659.649L262.099 661.854L263.353 664.064L264.609 666.277L265.866 668.495L267.126 670.716L268.388 672.94L269.653 675.168L270.919 677.401L272.188 679.637L273.458 681.877L274.731 684.12L276.006 686.368L277.283 688.618L278.563 690.874L279.844 693.132L281.128 695.394L282.413 697.66L283.701 699.931L284.991 702.204L286.283 704.481L287.577 706.762L288.873 709.047L290.171 711.335L291.472 713.628L292.774 715.923L294.079 718.223L295.386 720.527L296.694 722.833L298.27 721.939L296.961 719.633L295.654 717.329L294.349 715.029L293.047 712.734L291.747 710.441L290.448 708.153L289.152 705.869L287.858 703.587L286.566 701.31L285.276 699.037L283.989 696.767L282.703 694.501L281.419 692.238L280.138 689.98L278.859 687.724L277.582 685.474L276.307 683.226L275.034 680.983L273.763 678.743L272.495 676.507L271.228 674.275L269.964 672.046L268.702 669.822L267.442 667.601L266.184 665.383L264.928 663.17L263.674 660.96L262.423 658.755L261.174 656.553L259.926 654.355L258.681 652.16L257.438 649.969L256.198 647.782L254.96 645.599L253.723 643.421L252.489 641.245L251.257 639.073L250.028 636.906L248.8 634.742L247.575 632.582L246.351 630.425L245.13 628.273L243.911 626.124L242.694 623.98L241.48 621.839L240.267 619.702L239.057 617.568L237.849 615.439L236.643 613.313L235.439 611.192L234.238 609.074L233.038 606.96L231.841 604.849L230.647 602.744L229.454 600.641L228.263 598.543L227.075 596.448L225.889 594.358L224.705 592.271L223.523 590.188L222.344 588.109L221.166 586.034L219.992 583.963L218.819 581.895L217.647 579.832L216.479 577.773L215.313 575.716L214.149 573.665L212.987 571.617L211.828 569.574L210.67 567.534L209.516 565.498L208.363 563.466L207.213 561.438L206.064 559.413L204.917 557.393L203.774 555.377L202.632 553.364L201.493 551.357L200.355 549.352L199.221 547.351L198.088 545.355L196.958 543.362L195.829 541.373L194.704 539.389L193.58 537.408L192.458 535.431L191.339 533.459L190.222 531.491L189.107 529.525L187.995 527.565L186.885 525.608L185.777 523.655L184.671 521.707L183.568 519.762L182.467 517.821L181.368 515.884L180.272 513.951L179.177 512.022L178.085 510.098L176.996 508.177L175.909 506.261L174.824 504.348L173.741 502.439L172.66 500.535L171.581 498.634L170.506 496.738L169.432 494.845L168.361 492.957L167.292 491.072L166.225 489.192L165.161 487.316L164.098 485.443L163.039 483.575L161.98 481.711L160.925 479.851L159.873 477.995L158.822 476.143L157.773 474.295L156.728 472.452L155.684 470.612L154.642 468.776L153.604 466.945L152.566 465.117L151.533 463.294L150.5 461.475L149.471 459.66L148.443 457.849L147.417 456.042L146.396 454.239L145.375 452.44L144.356 450.646L143.34 448.855L142.327 447.069L141.316 445.287L140.307 443.509L139.301 441.735L138.297 439.965L137.295 438.199L136.296 436.438L135.299 434.68L134.304 432.927L133.312 431.178L132.322 429.433L131.334 427.692L130.349 425.955L129.366 424.223L128.386 422.495L127.408 420.771L126.432 419.051L125.458 417.335L124.488 415.623L123.519 413.916L122.552 412.213L121.589 410.514L120.627 408.819L119.668 407.128L118.711 405.442L117.757 403.76L116.805 402.082L115.855 400.408L114.908 398.738L113.963 397.073L113.02 395.412L112.081 393.755L111.143 392.102L110.208 390.453L109.275 388.81L108.344 387.17L107.416 385.533L106.49 383.902L105.567 382.275L104.647 380.652L103.728 379.033L102.813 377.418L101.899 375.808L100.987 374.202L100.079 372.6L99.1725 371.003L98.2682 369.409L97.3674 367.82L96.4681 366.235L95.5715 364.655L94.6771 363.079L93.7851 361.507L92.8957 359.939L92.0091 358.376L91.1247 356.817L90.2426 355.262L89.3632 353.712L88.486 352.165L87.6108 350.624L86.7387 349.086L85.8692 347.553L85.0013 346.024L84.1363 344.499L83.2742 342.979L82.4139 341.463L81.5567 339.951L80.7014 338.445L79.8484 336.942L78.9984 335.442L78.1504 333.948L77.3051 332.459L76.4628 330.973L75.6225 329.492L74.7844 328.015L73.949 326.543L73.1159 325.074L72.2856 323.611L71.4574 322.151L70.6321 320.696L69.8089 319.245L68.9885 317.799L68.1708 316.357L67.3546 314.92L66.5419 313.487L65.7314 312.058L64.9229 310.634L64.1175 309.213L63.3147 307.797L62.5134 306.386L61.7156 304.979L60.9198 303.577L60.1267 302.18L59.3362 300.785L58.548 299.396L57.7622 298.012L56.9798 296.631L56.1989 295.255L55.4207 293.884L54.6452 292.517L53.872 291.154L53.1016 289.796L52.3334 288.442L51.5678 287.093L50.8051 285.748L50.045 284.408L49.2872 283.072L48.5309 281.74L47.7785 280.413L47.0284 279.091L46.2803 277.773L45.5351 276.459L44.7919 275.15L44.0522 273.845L43.314 272.545L42.5793 271.249L41.8465 269.958L41.1165 268.672L40.3895 267.389L39.6644 266.111L38.9421 264.838L38.2219 263.569L37.5046 262.305L36.7907 261.045L36.0783 259.789L35.3691 258.539L34.6621 257.293L33.9567 256.051L33.2551 254.814L32.5559 253.581L31.8593 252.353L31.1655 251.13L30.4731 249.911L29.7843 248.696L29.0973 247.486L28.4139 246.281L27.7328 245.079L27.054 243.884L26.3775 242.692L25.7045 241.504L25.033 240.321L24.3646 239.144L23.6993 237.97L23.036 236.801L22.3753 235.637L21.7174 234.477L21.0617 233.322L20.4087 232.171L19.7585 231.025L19.111 229.883L18.4662 228.746L17.8241 227.614L17.1843 226.486L16.5464 225.363L15.912 224.244L15.2803 223.13L14.6506 222.022L14.0243 220.917L13.4004 219.816L12.7788 218.722L12.1595 217.631L11.5437 216.544L10.9298 215.463L10.3194 214.386L9.71091 213.314L9.10517 212.246L8.50171 211.183L7.9014 210.125L7.30414 209.071L6.70882 208.022L6.11619 206.977L5.52631 205.937L4.93837 204.902L4.35392 203.872L3.77216 202.846L3.19315 201.825L2.61685 200.809L2.04202 199.797L1.47112 198.79L0.902522 197.787L0.336295 196.79L-0.22687 195.797L-0.787658 194.809L-1.34539 193.825L-1.9012 192.846L-2.45384 191.872L-3.00342 190.902L-3.55108 189.937L-4.09602 188.977L-4.63825 188.022L-5.1773 187.072L-5.71409 186.126L-6.24817 185.184L-6.7795 184.248L-7.30814 183.316L-7.83406 182.389L-8.35727 181.466L-8.8773 180.549L-9.39505 179.636L-9.9109 178.728L-10.4232 177.824L-10.9332 176.927L-11.4401 176.032L-11.9443 175.143L-12.4461 174.259L-12.9455 173.38L-13.4413 172.505L-13.9351 171.635L-14.4262 170.77L-14.9138 169.909L-15.3994 169.053L-15.8822 168.202L-16.3623 167.357L-16.8397 166.515L-17.3143 165.679L-17.7861 164.847L-18.2552 164.02L-18.7215 163.198L-19.185 162.38L-19.6459 161.568L-20.1047 160.76L-20.5599 159.957L-21.0124 159.159L-21.4629 158.366L-21.9099 157.578L-22.3548 156.794L-22.7962 156.015L-23.2356 155.241L-23.6714 154.472L-24.1053 153.708L-24.5363 152.949L-24.9646 152.194L-25.3893 151.444L-25.812 150.699L-26.2319 149.959L-26.649 149.224L-27.0633 148.494L-27.4748 147.769L-27.8835 147.048L-28.2893 146.332L-28.6933 145.622L-29.0936 144.916L-29.4911 144.215L-29.8858 143.518L-30.2784 142.827L-30.6676 142.141L-31.0546 141.459L-31.438 140.783L-31.8194 140.111L-32.1973 139.444L-32.573 138.782L-32.946 138.126L-33.3161 137.474L-33.6827 136.826L-34.0471 136.184L-34.4088 135.547L-34.7676 134.914L-35.1236 134.287L-35.4767 133.664L-35.827 133.047L-36.1745 132.434L-36.5192 131.826L-36.8617 131.224L-37.2007 130.626L-37.5368 130.033L-37.8708 129.445L-38.2012 128.862L-38.5288 128.284L-38.8543 127.711L-39.1769 127.143L-39.4959 126.58L-39.8128 126.022L-40.1269 125.469L-40.4373 124.92L-40.7456 124.377L-41.0511 123.839L-41.3537 123.306L-41.6535 122.778L-41.9503 122.254L-42.2443 121.736L-42.5354 121.223L-42.8236 120.714L-43.109 120.211L-43.3915 119.713L-43.6719 119.22L-43.9486 118.732L-44.2225 118.248L-44.4942 117.77L-44.7622 117.297L-45.0282 116.829L-45.2905 116.366L-45.5506 115.908L-45.8079 115.455L-46.0615 115.007L-46.313 114.564L-46.5615 114.126L-46.8072 113.693L-47.05 113.266L-47.2898 112.843L-47.5268 112.425L-47.7608 112.013L-47.9919 111.605L-48.2201 111.203L-48.4454 110.805L-48.6677 110.413L-48.888 110.026L-49.1046 109.644L-49.3181 109.266L-49.5297 108.895L-49.7374 108.528L-49.943 108.166L-50.1449 107.809L-50.3447 107.458L-50.5415 107.111L-50.7346 106.77L-50.9255 106.433L-51.1135 106.102L-51.2985 105.776L-51.4807 105.456L-51.6599 105.14L-51.8361 104.829L-52.0094 104.524L-52.1797 104.223L-52.3471 103.928L-52.5115 103.637L-52.6738 103.353L-52.8323 103.073L-52.9878 102.798L-53.1412 102.529L-53.2908 102.264L-53.4383 102.005L-53.582 101.751L-53.7235 101.502L-53.862 101.258L-53.9968 101.02L-54.1294 100.786L-54.259 100.558L-54.3856 100.335L-54.5093 100.117L-54.63 99.9048L-54.7477 99.6973L-54.8624 99.4949L-54.9742 99.2978L-55.0829 99.1058L-55.1886 98.919L-55.2914 98.7374L-55.392 98.5615L-55.4887 98.3903L-55.5832 98.2247L-55.6741 98.0638L-55.7618 97.9081L-55.8473 97.7582L-55.9299 97.6134L-56.0087 97.4734L-56.0852 97.339L-56.1588 97.2098L-56.2292 97.0859L-56.296 96.9667L-56.3604 96.8532L-56.4219 96.745L-56.4804 96.6418L-56.5358 96.5441L-56.589 96.4519L-56.6384 96.3646L-56.6847 96.2825L-56.728 96.2057L-56.7684 96.134L-56.8064 96.0681L-56.8406 96.007L-56.8726 95.9517L-56.9007 95.9011L-56.9267 95.8562L-56.9487 95.8162L-56.9686 95.7818L-56.9853 95.7528L-56.9991 95.729L-57.0089 95.7101L-57.0166 95.6968L-57.0212 95.6889ZM-268.015 217.495C-267.707 216.644 -267.705 216.644 -267.703 216.645L-267.691 216.65L-267.644 216.667L-267.633 216.67L-267.536 216.706L-267.462 216.733L-267.327 216.783L-267.174 216.84C-267.052 216.886 -266.91 216.94 -266.748 217.001C-266.116 217.239 -265.178 217.598 -263.945 218.083C-261.479 219.053 -257.838 220.525 -253.124 222.537C-243.696 226.561 -229.981 232.746 -212.819 241.394C-178.493 258.688 -130.374 285.834 -75.1744 325.247C35.2255 404.073 173.951 531.973 287.286 728.273L285.717 729.179C172.535 533.142 34.0025 405.426 -76.2265 326.721C-131.342 287.369 -179.38 260.27 -213.633 243.011C-230.76 234.382 -244.44 228.213 -253.835 224.203C-258.532 222.198 -262.158 220.732 -264.608 219.769C-265.833 219.287 -266.764 218.931 -267.387 218.695C-267.7 218.578 -267.934 218.49 -268.091 218.432C-268.154 218.409 -268.204 218.39 -268.241 218.377L-268.267 218.367L-268.31 218.351L-268.321 218.348C-268.321 218.348 -268.322 218.347 -268.3 218.284C-268.269 218.196 -268.194 217.989 -268.015 217.495ZM-179.653 166.032C-179.655 166.03 -179.656 166.03 -180.168 166.777C-180.681 167.524 -180.68 167.524 -180.678 167.525L-180.67 167.53L-180.638 167.553L-180.507 167.644C-180.39 167.725 -180.215 167.847 -179.981 168.01C-179.79 168.144 -179.56 168.306 -179.292 168.496C-179.127 168.612 -178.949 168.739 -178.757 168.876C-178.497 169.061 -178.211 169.265 -177.9 169.488C-176.062 170.806 -173.335 172.791 -169.782 175.458C-162.677 180.792 -152.269 188.853 -139.069 199.753C-112.67 221.554 -75.1054 254.712 -30.462 300.128C58.8239 390.959 176.423 530.819 289.639 726.915L291.208 726.009C177.907 529.766 60.2101 389.784 -29.1704 298.858C-73.8604 253.394 -111.472 220.194 -137.916 198.357C-151.138 187.438 -161.567 179.359 -168.695 174.009C-172.258 171.334 -174.996 169.341 -176.845 168.016C-177.768 167.353 -178.47 166.858 -178.942 166.527C-179.075 166.434 -179.189 166.354 -179.285 166.288C-179.359 166.235 -179.423 166.192 -179.475 166.155L-179.61 166.062L-179.644 166.038L-179.653 166.032ZM-109.577 126.021C-108.892 125.43 -108.89 125.43 -108.889 125.432L-108.883 125.439L-108.858 125.468L-108.761 125.582C-108.674 125.683 -108.544 125.834 -108.373 126.035C-108.029 126.438 -107.516 127.041 -106.838 127.844C-105.481 129.449 -103.463 131.855 -100.814 135.054C-95.5175 141.454 -87.6984 151.032 -77.609 163.751C-57.4299 189.188 -28.1672 227.19 8.17423 277.452C80.8567 377.977 181.854 527.547 295.129 723.745L293.561 724.651C180.319 528.511 79.3559 378.993 6.70621 278.514C-29.6185 228.273 -58.8645 190.294 -79.0278 164.876C-89.1093 152.167 -96.9206 142.599 -102.21 136.209C-104.855 133.014 -106.869 130.614 -108.221 129.013C-108.63 128.529 -108.978 128.118 -109.265 127.781C-109.453 127.56 -109.615 127.37 -109.751 127.211C-109.922 127.011 -110.05 126.861 -110.135 126.761L-110.232 126.649L-110.256 126.621L-110.262 126.614C-110.263 126.613 -110.264 126.612 -109.577 126.021Z" fill="url(#paint0_linear_410_44343)" fill-opacity="0.4"/>
<defs>
<linearGradient id="paint0_linear_410_44343" x1="397.163" y1="652.288" x2="49.2001" y2="49.5984" gradientUnits="userSpaceOnUse">
<stop offset="0.0182341" stop-color="white" stop-opacity="0"/>
<stop offset="0.127609" stop-color="#FD4B28"/>
<stop offset="0.563305" stop-color="white" stop-opacity="0.65"/>
<stop offset="0.943305" stop-color="white" stop-opacity="0"/>
</linearGradient>
</defs>
</svg>
