<svg width="57" height="60" viewBox="0 0 57 60" fill="none" xmlns="http://www.w3.org/2000/svg">
<path d="M41.3202 2.8125C41.3202 2.06658 41.6165 1.35121 42.1439 0.823762C42.6714 0.296316 43.3867 0 44.1327 0H53.5077C54.2536 0 54.9689 0.296316 55.4964 0.823762C56.0238 1.35121 56.3202 2.06658 56.3202 2.8125V12.1875C56.3202 12.9334 56.0238 13.6488 55.4964 14.1762C54.9689 14.7037 54.2536 15 53.5077 15C52.7617 15 52.0464 14.7037 51.5189 14.1762C50.9915 13.6488 50.6952 12.9334 50.6952 12.1875V9.6L33.9327 26.3625C33.4053 26.8892 32.6905 27.185 31.9452 27.185C31.1998 27.185 30.485 26.8892 29.9577 26.3625L20.6952 17.1L4.87016 32.925C4.61267 33.2013 4.30217 33.423 3.95717 33.5767C3.61218 33.7304 3.23975 33.8131 2.86212 33.8197C2.48448 33.8264 2.10937 33.7569 1.75917 33.6155C1.40896 33.474 1.09083 33.2635 0.823762 32.9964C0.556692 32.7293 0.34615 32.4112 0.204696 32.061C0.0632422 31.7108 -0.00622524 31.3357 0.000437704 30.958C0.00710065 30.5804 0.0897582 30.208 0.243478 29.863C0.397198 29.518 0.618831 29.2075 0.895156 28.95L18.7077 11.1375C19.235 10.6108 19.9498 10.315 20.6952 10.315C21.4405 10.315 22.1553 10.6108 22.6827 11.1375L31.9452 20.4L46.7202 5.625H44.1327C43.3867 5.625 42.6714 5.32868 42.1439 4.80124C41.6165 4.27379 41.3202 3.55842 41.3202 2.8125ZM2.88266 45C3.62858 45 4.34395 45.2963 4.87139 45.8238C5.39884 46.3512 5.69516 47.0666 5.69516 47.8125V57.1875C5.69516 57.9334 5.39884 58.6488 4.87139 59.1762C4.34395 59.7037 3.62858 60 2.88266 60C2.13673 60 1.42136 59.7037 0.893918 59.1762C0.366472 58.6488 0.0701564 57.9334 0.0701564 57.1875V47.8125C0.0701564 47.0666 0.366472 46.3512 0.893918 45.8238C1.42136 45.2963 2.13673 45 2.88266 45ZM20.6952 36.5625C20.6952 35.8166 20.3988 35.1012 19.8714 34.5738C19.3439 34.0463 18.6286 33.75 17.8827 33.75C17.1367 33.75 16.4214 34.0463 15.8939 34.5738C15.3665 35.1012 15.0702 35.8166 15.0702 36.5625V57.1875C15.0702 57.9334 15.3665 58.6488 15.8939 59.1762C16.4214 59.7037 17.1367 60 17.8827 60C18.6286 60 19.3439 59.7037 19.8714 59.1762C20.3988 58.6488 20.6952 57.9334 20.6952 57.1875V36.5625ZM32.8827 41.25C33.6286 41.25 34.3439 41.5463 34.8714 42.0738C35.3988 42.6012 35.6952 43.3166 35.6952 44.0625V57.1875C35.6952 57.9334 35.3988 58.6488 34.8714 59.1762C34.3439 59.7037 33.6286 60 32.8827 60C32.1367 60 31.4214 59.7037 30.8939 59.1762C30.3665 58.6488 30.0702 57.9334 30.0702 57.1875V44.0625C30.0702 43.3166 30.3665 42.6012 30.8939 42.0738C31.4214 41.5463 32.1367 41.25 32.8827 41.25ZM50.6952 29.0625C50.6952 28.3166 50.3988 27.6012 49.8714 27.0738C49.3439 26.5463 48.6286 26.25 47.8827 26.25C47.1367 26.25 46.4214 26.5463 45.8939 27.0738C45.3665 27.6012 45.0702 28.3166 45.0702 29.0625V57.1875C45.0702 57.9334 45.3665 58.6488 45.8939 59.1762C46.4214 59.7037 47.1367 60 47.8827 60C48.6286 60 49.3439 59.7037 49.8714 59.1762C50.3988 58.6488 50.6952 57.9334 50.6952 57.1875V29.0625Z" fill="currentColor"/>
</svg>
