<svg width="22" height="20" viewBox="0 0 22 20" fill="none" xmlns="http://www.w3.org/2000/svg">
<path d="M14.7729 12.8307L14.2376 13.3636C14.2376 13.3636 12.9635 14.6295 9.48697 11.173C6.01047 7.71651 7.28459 6.45062 7.28459 6.45062L7.62107 6.11414C8.45284 5.28825 8.53166 3.96118 7.80578 2.99176L6.32341 1.01175C5.42458 -0.188261 3.68927 -0.347086 2.65985 0.676452L0.812779 2.51176C0.303363 3.02 -0.0378168 3.67648 0.00336002 4.40589C0.109243 6.27297 0.953956 10.2883 5.66458 14.973C10.6611 19.9401 15.3494 20.1378 17.2659 19.959C17.8729 19.9025 18.4 19.5943 18.8247 19.1707L20.4953 17.5095C21.6247 16.3883 21.3071 14.4648 19.8623 13.6801L17.6153 12.4577C16.667 11.9424 15.5141 12.0942 14.7729 12.8307Z" fill="currentColor"/>
</svg>
