<svg width="23" height="20" viewBox="0 0 23 20" fill="none" xmlns="http://www.w3.org/2000/svg">
<path d="M25.1518 2.35294C24.2459 2.76471 23.2694 3.03529 22.2577 3.16471C23.2929 2.54118 24.093 1.55294 24.4694 0.364706C23.493 0.952941 22.4106 1.36471 21.2694 1.6C20.34 0.588235 19.0341 0 17.5518 0C14.7871 0 12.5282 2.25882 12.5282 5.04706C12.5282 5.44706 12.5753 5.83529 12.6577 6.2C8.46942 5.98824 4.74001 3.97647 2.25766 0.929412C1.82236 1.67059 1.5753 2.54118 1.5753 3.45882C1.5753 5.21177 2.45766 6.76471 3.82236 7.64706C2.98707 7.64706 2.2106 7.41177 1.52824 7.05882V7.09412C1.52824 9.54118 3.26942 11.5882 5.5753 12.0471C4.83498 12.2497 4.05777 12.2778 3.30471 12.1294C3.62425 13.1323 4.25005 14.0099 5.09415 14.6387C5.93824 15.2676 6.95818 15.6161 8.0106 15.6353C6.22663 17.0476 4.0153 17.811 1.74001 17.8C1.34001 17.8 0.940009 17.7765 0.540009 17.7294C2.7753 19.1647 5.43413 20 8.28119 20C17.5518 20 22.6459 12.3059 22.6459 5.63529C22.6459 5.41176 22.6459 5.2 22.6341 4.97647C23.6224 4.27059 24.4694 3.37647 25.1518 2.35294Z" fill="currentColor"/>
</svg>
